# xmcd
#
# Track frame offsets: 
#        150
#        8452
#        25564
#        38607
#        50435
#        62640
#        77512
#        88825
#        103654
#        117013
#        130942
#        143083
#        158479
#        174491
#        190006
#        207510
#        218197
#        233665
#        255412
#        278790
#
# Disc length: 3881 seconds
#
# Revision: 0
# Processed by: cddbd v1.5.2PL0 Copyright (c) Steve Scherf et al.
# Submitted via: ExactAudioCopy v1.2
#
DISCID=f90f2714
DTITLE=Compilation - Country 116 Original Hits Disc 3
DYEAR=1900
DGENRE=
TTITLE0=The Nitty Gritty Dirt Band - Hey Good Lookin
TTITLE1=Suzy Bogguss - All My Loving
TTITLE2=Tanya Tucker - San Antonio Stroll
TTITLE3=Wanda Jackson with Mike Post - Jackson(live)
TTITLE4=Billie Jo Spears - What Ive Got In Mind
TTITLE5=Asleep At The Wheel - She Came To Dance
TTITLE6=Chris Ledoux - Under This Old Hat
TTITLE7=Deana Carter - Brand New Key
TTITLE8=Mel McDaniel - Baby's Got Her Blue Jeans On
TTITLE9=Larry Gatlin and The Gatlin Brothers - Boogie And Beethoven
TTITLE10=Pirates Of The Mississippi - The Wild Side Of Life
TTITLE11=Juice Newton - Queen Of Hearts
TTITLE12=Joe South - Games People Play
TTITLE13=George Ducas - Tricky Moon
TTITLE14=Gail Davies - The Other Side Of Love
TTITLE15=Lacy J.Dalton and Eddy Rabbit - Bye Bye Love
TTITLE16=Dierks Bentley - I Bought The Shoes
TTITLE17=Charlie Daniels - Tennessee Two Step
TTITLE18=Chris Cagle - It Takes Two
TTITLE19=Del Reeves and Billie Jo Spears - Let Your Love Flow
EXTD=
EXTT0=
EXTT1=
EXTT2=
EXTT3=
EXTT4=
EXTT5=
EXTT6=
EXTT7=
EXTT8=
EXTT9=
EXTT10=
EXTT11=
EXTT12=
EXTT13=
EXTT14=
EXTT15=
EXTT16=
EXTT17=
EXTT18=
EXTT19=
PLAYORDER=
